<svg width="17" height="17" viewBox="0 0 17 17" fill="none" xmlns="http://www.w3.org/2000/svg">
<path d="M8.5 1C9.98336 1 11.4334 1.43987 12.6668 2.26398C13.9001 3.08809 14.8614 4.25943 15.4291 5.62987C15.9968 7.00032 16.1453 8.50832 15.8559 9.96318C15.5665 11.418 14.8522 12.7544 13.8033 13.8033C12.7544 14.8522 11.418 15.5665 9.96318 15.8559C8.50832 16.1453 7.00032 15.9968 5.62988 15.4291C4.25943 14.8614 3.08809 13.9001 2.26398 12.6668C1.43987 11.4334 1.00001 9.98336 1.00001 8.5C0.997627 6.35151 1.82426 4.28493 3.3077 2.73077" stroke="white" stroke-linecap="round" stroke-linejoin="round"/>
<path d="M1 3.30739L3.30769 2.73047L3.88461 5.03816" stroke="white" stroke-linecap="round" stroke-linejoin="round"/>
<path d="M8.5 4.46094V9.07632L11.5 10.5763" stroke="white" stroke-linecap="round" stroke-linejoin="round"/>
</svg>
