<svg width="17" height="14" viewBox="0 0 17 14" fill="none" xmlns="http://www.w3.org/2000/svg">
<path d="M1.57692 2.15385C1.89555 2.15385 2.15385 1.89555 2.15385 1.57692C2.15385 1.2583 1.89555 1 1.57692 1C1.2583 1 1 1.2583 1 1.57692C1 1.89555 1.2583 2.15385 1.57692 2.15385Z" stroke="white" stroke-linecap="round" stroke-linejoin="round"/>
<path d="M5.61719 1.57812H16.0018" stroke="white" stroke-linecap="round" stroke-linejoin="round"/>
<path d="M1.57692 7.34525C1.89555 7.34525 2.15385 7.08696 2.15385 6.76833C2.15385 6.4497 1.89555 6.19141 1.57692 6.19141C1.2583 6.19141 1 6.4497 1 6.76833C1 7.08696 1.2583 7.34525 1.57692 7.34525Z" stroke="white" stroke-linecap="round" stroke-linejoin="round"/>
<path d="M5.61719 6.76953H16.0018" stroke="white" stroke-linecap="round" stroke-linejoin="round"/>
<path d="M1.57692 12.5367C1.89555 12.5367 2.15385 12.2784 2.15385 11.9597C2.15385 11.6411 1.89555 11.3828 1.57692 11.3828C1.2583 11.3828 1 11.6411 1 11.9597C1 12.2784 1.2583 12.5367 1.57692 12.5367Z" stroke="white" stroke-linecap="round" stroke-linejoin="round"/>
<path d="M5.61719 11.9609H16.0018" stroke="white" stroke-linecap="round" stroke-linejoin="round"/>
</svg>
