<svg width="17" height="14" viewBox="0 0 17 14" fill="none" xmlns="http://www.w3.org/2000/svg">
<path d="M6.19141 2.73137L6.19141 1.57752C6.19141 1.42451 6.25219 1.27777 6.36038 1.16958C6.46858 1.06138 6.61532 1.0006 6.76833 1.0006L15.4222 1.0006C15.5752 1.0006 15.7219 1.06138 15.8301 1.16958C15.9383 1.27777 15.9991 1.42451 15.9991 1.57752L15.9991 11.9621C15.9991 12.1151 15.9383 12.2619 15.8301 12.3701C15.7219 12.4783 15.5752 12.5391 15.4222 12.5391L6.76833 12.5391C6.61532 12.5391 6.46858 12.4783 6.36038 12.3701C6.25219 12.2619 6.19141 12.1151 6.19141 11.9621L6.19141 10.8083" stroke="white" stroke-linecap="round" stroke-linejoin="round"/>
<path d="M9.07692 6.76953L1 6.76953" stroke="white" stroke-linecap="round" stroke-linejoin="round"/>
<path d="M3.30769 9.07813L1 6.77043L3.30769 4.46274" stroke="white" stroke-linecap="round" stroke-linejoin="round"/>
</svg>
